# xmcd CD database file
#
# Track frame offsets:
#	150
#	16679
#	42131
#	64579
#	75801
#	94567
#	115457
#	127589
#	172319
#
# Disc length: 2472 seconds
#
# Revision: 0
# Processed by: cddbd v1.5.1PL2 Copyright (c) Steve Scherf et al.
# Submitted via: CDex 1.51
#
DISCID=5d09a609
DTITLE=B.B. KING - Back In The Alley
DYEAR=1900
DGENRE=Blues
TTITLE0=01-Sweet Little Angel
TTITLE1=02-Watch Yourself
TTITLE2=03-Don't Answer The Door
TTITLE3=04-Paying The Cost To Be The Boss
TTITLE4=05-Sweet Sixteen
TTITLE5=06-Gambler's blues
TTITLE6=07-I'm Gonna Do What They Do To Me
TTITLE7=08-Lucille
TTITLE8=09-Please Love Me
EXTD=
EXTT0=
EXTT1=
EXTT2=
EXTT3=
EXTT4=
EXTT5=
EXTT6=
EXTT7=
EXTT8=
PLAYORDER=
